<svg width="128" height="51" viewBox="0 0 128 51" fill="none" xmlns="http://www.w3.org/2000/svg">
<g filter="url(#filter0_ddi_2_289)">
<path d="M4 8C4 3.58172 7.58172 0 12 0H116C120.418 0 124 3.58172 124 8V35C124 39.4183 120.418 43 116 43H12C7.58172 43 4 39.4183 4 35V8Z" fill="#593027"/>
<path d="M4.5 8C4.5 3.85787 7.85786 0.5 12 0.5H116C120.142 0.5 123.5 3.85786 123.5 8V35C123.5 39.1421 120.142 42.5 116 42.5H12C7.85786 42.5 4.5 39.1421 4.5 35V8Z" stroke="#2C2C2C" stroke-linecap="round"/>
<path d="M19.6667 27.5L15 24.1667L10.3333 27.5V16.8333C10.3333 16.4797 10.4738 16.1406 10.7239 15.8905C10.9739 15.6405 11.3131 15.5 11.6667 15.5H18.3333C18.687 15.5 19.0261 15.6405 19.2762 15.8905C19.5262 16.1406 19.6667 16.4797 19.6667 16.8333V27.5Z" fill="#F5F5F5" stroke="#2C2C2C" stroke-width="1.6" stroke-linecap="round" stroke-linejoin="round"/>
<path d="M32.4091 27.5V15.8636H36.3409C37.2538 15.8636 38 16.0284 38.5795 16.358C39.1629 16.6837 39.5947 17.125 39.875 17.6818C40.1553 18.2386 40.2955 18.8598 40.2955 19.5455C40.2955 20.2311 40.1553 20.8542 39.875 21.4148C39.5985 21.9754 39.1705 22.4223 38.5909 22.7557C38.0114 23.0852 37.2689 23.25 36.3636 23.25H33.5455V22H36.3182C36.9432 22 37.4451 21.892 37.8239 21.6761C38.2027 21.4602 38.4773 21.1686 38.6477 20.8011C38.822 20.4299 38.9091 20.0114 38.9091 19.5455C38.9091 19.0795 38.822 18.6629 38.6477 18.2955C38.4773 17.928 38.2008 17.6402 37.8182 17.4318C37.4356 17.2197 36.928 17.1136 36.2955 17.1136H33.8182V27.5H32.4091ZM52.3835 21.6818C52.3835 22.9091 52.1619 23.9697 51.7188 24.8636C51.2756 25.7576 50.6676 26.447 49.8949 26.9318C49.1222 27.4167 48.2396 27.6591 47.2472 27.6591C46.2547 27.6591 45.3722 27.4167 44.5994 26.9318C43.8267 26.447 43.2188 25.7576 42.7756 24.8636C42.3324 23.9697 42.1108 22.9091 42.1108 21.6818C42.1108 20.4545 42.3324 19.3939 42.7756 18.5C43.2188 17.6061 43.8267 16.9167 44.5994 16.4318C45.3722 15.947 46.2547 15.7045 47.2472 15.7045C48.2396 15.7045 49.1222 15.947 49.8949 16.4318C50.6676 16.9167 51.2756 17.6061 51.7188 18.5C52.1619 19.3939 52.3835 20.4545 52.3835 21.6818ZM51.0199 21.6818C51.0199 20.6742 50.8513 19.8239 50.5142 19.1307C50.1809 18.4375 49.7282 17.9129 49.1562 17.5568C48.5881 17.2008 47.9517 17.0227 47.2472 17.0227C46.5426 17.0227 45.9044 17.2008 45.3324 17.5568C44.7642 17.9129 44.3116 18.4375 43.9744 19.1307C43.6411 19.8239 43.4744 20.6742 43.4744 21.6818C43.4744 22.6894 43.6411 23.5398 43.9744 24.233C44.3116 24.9261 44.7642 25.4508 45.3324 25.8068C45.9044 26.1629 46.5426 26.3409 47.2472 26.3409C47.9517 26.3409 48.5881 26.1629 49.1562 25.8068C49.7282 25.4508 50.1809 24.9261 50.5142 24.233C50.8513 23.5398 51.0199 22.6894 51.0199 21.6818ZM54.7528 27.5V15.8636H58.6847C59.5938 15.8636 60.34 16.0189 60.9233 16.3295C61.5066 16.6364 61.9384 17.0587 62.2188 17.5966C62.4991 18.1345 62.6392 18.7462 62.6392 19.4318C62.6392 20.1174 62.4991 20.7254 62.2188 21.2557C61.9384 21.786 61.5085 22.2027 60.929 22.5057C60.3494 22.8049 59.6089 22.9545 58.7074 22.9545H55.5256V21.6818H58.6619C59.2831 21.6818 59.7831 21.5909 60.1619 21.4091C60.5445 21.2273 60.821 20.9697 60.9915 20.6364C61.1657 20.2992 61.2528 19.8977 61.2528 19.4318C61.2528 18.9659 61.1657 18.5587 60.9915 18.2102C60.8172 17.8617 60.5388 17.5928 60.1562 17.4034C59.7737 17.2102 59.268 17.1136 58.6392 17.1136H56.1619V27.5H54.7528ZM60.2301 22.2727L63.0938 27.5H61.4574L58.6392 22.2727H60.2301ZM64.3509 17.1136V15.8636H73.0781V17.1136H69.419V27.5H68.0099V17.1136H64.3509ZM75.2528 27.5V15.8636H82.2301V17.1136H76.6619V21.0455H81.7074V22.2955H76.6619V27.5H75.2528ZM94.4616 21.6818C94.4616 22.9091 94.2401 23.9697 93.7969 24.8636C93.3537 25.7576 92.7457 26.447 91.973 26.9318C91.2003 27.4167 90.3177 27.6591 89.3253 27.6591C88.3329 27.6591 87.4503 27.4167 86.6776 26.9318C85.9048 26.447 85.2969 25.7576 84.8537 24.8636C84.4105 23.9697 84.1889 22.9091 84.1889 21.6818C84.1889 20.4545 84.4105 19.3939 84.8537 18.5C85.2969 17.6061 85.9048 16.9167 86.6776 16.4318C87.4503 15.947 88.3329 15.7045 89.3253 15.7045C90.3177 15.7045 91.2003 15.947 91.973 16.4318C92.7457 16.9167 93.3537 17.6061 93.7969 18.5C94.2401 19.3939 94.4616 20.4545 94.4616 21.6818ZM93.098 21.6818C93.098 20.6742 92.9295 19.8239 92.5923 19.1307C92.259 18.4375 91.8063 17.9129 91.2344 17.5568C90.6662 17.2008 90.0298 17.0227 89.3253 17.0227C88.6207 17.0227 87.9825 17.2008 87.4105 17.5568C86.8423 17.9129 86.3897 18.4375 86.0526 19.1307C85.7192 19.8239 85.5526 20.6742 85.5526 21.6818C85.5526 22.6894 85.7192 23.5398 86.0526 24.233C86.3897 24.9261 86.8423 25.4508 87.4105 25.8068C87.9825 26.1629 88.6207 26.3409 89.3253 26.3409C90.0298 26.3409 90.6662 26.1629 91.2344 25.8068C91.8063 25.4508 92.259 24.9261 92.5923 24.233C92.9295 23.5398 93.098 22.6894 93.098 21.6818ZM96.831 27.5V15.8636H98.2401V26.25H103.649V27.5H96.831ZM107.24 15.8636V27.5H105.831V15.8636H107.24ZM119.884 21.6818C119.884 22.9091 119.662 23.9697 119.219 24.8636C118.776 25.7576 118.168 26.447 117.395 26.9318C116.622 27.4167 115.74 27.6591 114.747 27.6591C113.755 27.6591 112.872 27.4167 112.099 26.9318C111.327 26.447 110.719 25.7576 110.276 24.8636C109.832 23.9697 109.611 22.9091 109.611 21.6818C109.611 20.4545 109.832 19.3939 110.276 18.5C110.719 17.6061 111.327 16.9167 112.099 16.4318C112.872 15.947 113.755 15.7045 114.747 15.7045C115.74 15.7045 116.622 15.947 117.395 16.4318C118.168 16.9167 118.776 17.6061 119.219 18.5C119.662 19.3939 119.884 20.4545 119.884 21.6818ZM118.52 21.6818C118.52 20.6742 118.351 19.8239 118.014 19.1307C117.681 18.4375 117.228 17.9129 116.656 17.5568C116.088 17.2008 115.452 17.0227 114.747 17.0227C114.043 17.0227 113.404 17.2008 112.832 17.5568C112.264 17.9129 111.812 18.4375 111.474 19.1307C111.141 19.8239 110.974 20.6742 110.974 21.6818C110.974 22.6894 111.141 23.5398 111.474 24.233C111.812 24.9261 112.264 25.4508 112.832 25.8068C113.404 26.1629 114.043 26.3409 114.747 26.3409C115.452 26.3409 116.088 26.1629 116.656 25.8068C117.228 25.4508 117.681 24.9261 118.014 24.233C118.351 23.5398 118.52 22.6894 118.52 21.6818Z" fill="#F5F5F5"/>
</g>
<defs>
<filter id="filter0_ddi_2_289" x="0" y="0" width="128" height="51" filterUnits="userSpaceOnUse" color-interpolation-filters="sRGB">
<feFlood flood-opacity="0" result="BackgroundImageFix"/>
<feColorMatrix in="SourceAlpha" type="matrix" values="0 0 0 0 0 0 0 0 0 0 0 0 0 0 0 0 0 0 127 0" result="hardAlpha"/>
<feOffset dy="4"/>
<feGaussianBlur stdDeviation="2"/>
<feComposite in2="hardAlpha" operator="out"/>
<feColorMatrix type="matrix" values="0 0 0 0 0 0 0 0 0 0 0 0 0 0 0 0 0 0 0.25 0"/>
<feBlend mode="normal" in2="BackgroundImageFix" result="effect1_dropShadow_2_289"/>
<feColorMatrix in="SourceAlpha" type="matrix" values="0 0 0 0 0 0 0 0 0 0 0 0 0 0 0 0 0 0 127 0" result="hardAlpha"/>
<feOffset dy="4"/>
<feGaussianBlur stdDeviation="2"/>
<feComposite in2="hardAlpha" operator="out"/>
<feColorMatrix type="matrix" values="0 0 0 0 0 0 0 0 0 0 0 0 0 0 0 0 0 0 0.25 0"/>
<feBlend mode="normal" in2="effect1_dropShadow_2_289" result="effect2_dropShadow_2_289"/>
<feBlend mode="normal" in="SourceGraphic" in2="effect2_dropShadow_2_289" result="shape"/>
<feColorMatrix in="SourceAlpha" type="matrix" values="0 0 0 0 0 0 0 0 0 0 0 0 0 0 0 0 0 0 127 0" result="hardAlpha"/>
<feMorphology radius="3" operator="dilate" in="SourceAlpha" result="effect3_innerShadow_2_289"/>
<feOffset dx="4" dy="5"/>
<feGaussianBlur stdDeviation="2.5"/>
<feComposite in2="hardAlpha" operator="arithmetic" k2="-1" k3="1"/>
<feColorMatrix type="matrix" values="0 0 0 0 0 0 0 0 0 0 0 0 0 0 0 0 0 0 0.25 0"/>
<feBlend mode="normal" in2="shape" result="effect3_innerShadow_2_289"/>
</filter>
</defs>
</svg>
