<svg width="128" height="51" viewBox="0 0 128 51" fill="none" xmlns="http://www.w3.org/2000/svg">
<g filter="url(#filter0_ddi_2_284)">
<path d="M4 8C4 3.58172 7.58172 0 12 0H116C120.418 0 124 3.58172 124 8V35C124 39.4183 120.418 43 116 43H12C7.58172 43 4 39.4183 4 35V8Z" fill="#593027"/>
<path d="M4.5 8C4.5 3.85787 7.85786 0.5 12 0.5H116C120.142 0.5 123.5 3.85786 123.5 8V35C123.5 39.1421 120.142 42.5 116 42.5H12C7.85786 42.5 4.5 39.1421 4.5 35V8Z" stroke="#2C2C2C" stroke-linecap="round"/>
<path d="M16.1667 16.1667H26.8333C27.5667 16.1667 28.1667 16.7667 28.1667 17.5V25.5C28.1667 26.2333 27.5667 26.8333 26.8333 26.8333H16.1667C15.4333 26.8333 14.8333 26.2333 14.8333 25.5V17.5C14.8333 16.7667 15.4333 16.1667 16.1667 16.1667Z" fill="#F5F5F5"/>
<path d="M28.1667 17.5L21.5 22.1667L14.8333 17.5" fill="#F5F5F5"/>
<path d="M28.1667 17.5C28.1667 16.7667 27.5667 16.1667 26.8333 16.1667H16.1667C15.4333 16.1667 14.8333 16.7667 14.8333 17.5M28.1667 17.5V25.5C28.1667 26.2333 27.5667 26.8333 26.8333 26.8333H16.1667C15.4333 26.8333 14.8333 26.2333 14.8333 25.5V17.5M28.1667 17.5L21.5 22.1667L14.8333 17.5" stroke="#2C2C2C" stroke-width="1.6" stroke-linecap="round" stroke-linejoin="round"/>
<path d="M48.2727 19.5H46.8636C46.7803 19.0947 46.6345 18.7386 46.4261 18.4318C46.2216 18.125 45.9716 17.8674 45.6761 17.6591C45.3845 17.447 45.0606 17.2879 44.7045 17.1818C44.3485 17.0758 43.9773 17.0227 43.5909 17.0227C42.8864 17.0227 42.2481 17.2008 41.6761 17.5568C41.108 17.9129 40.6553 18.4375 40.3182 19.1307C39.9848 19.8239 39.8182 20.6742 39.8182 21.6818C39.8182 22.6894 39.9848 23.5398 40.3182 24.233C40.6553 24.9261 41.108 25.4508 41.6761 25.8068C42.2481 26.1629 42.8864 26.3409 43.5909 26.3409C43.9773 26.3409 44.3485 26.2879 44.7045 26.1818C45.0606 26.0758 45.3845 25.9186 45.6761 25.7102C45.9716 25.4981 46.2216 25.2386 46.4261 24.9318C46.6345 24.6212 46.7803 24.2652 46.8636 23.8636H48.2727C48.1667 24.4583 47.9735 24.9905 47.6932 25.4602C47.4129 25.9299 47.0644 26.3295 46.6477 26.6591C46.2311 26.9848 45.7633 27.233 45.2443 27.4034C44.7292 27.5739 44.178 27.6591 43.5909 27.6591C42.5985 27.6591 41.7159 27.4167 40.9432 26.9318C40.1705 26.447 39.5625 25.7576 39.1193 24.8636C38.6761 23.9697 38.4545 22.9091 38.4545 21.6818C38.4545 20.4545 38.6761 19.3939 39.1193 18.5C39.5625 17.6061 40.1705 16.9167 40.9432 16.4318C41.7159 15.947 42.5985 15.7045 43.5909 15.7045C44.178 15.7045 44.7292 15.7898 45.2443 15.9602C45.7633 16.1307 46.2311 16.3807 46.6477 16.7102C47.0644 17.036 47.4129 17.4337 47.6932 17.9034C47.9735 18.3693 48.1667 18.9015 48.2727 19.5ZM60.3679 21.6818C60.3679 22.9091 60.1463 23.9697 59.7031 24.8636C59.2599 25.7576 58.652 26.447 57.8793 26.9318C57.1065 27.4167 56.224 27.6591 55.2315 27.6591C54.2391 27.6591 53.3565 27.4167 52.5838 26.9318C51.8111 26.447 51.2031 25.7576 50.7599 24.8636C50.3168 23.9697 50.0952 22.9091 50.0952 21.6818C50.0952 20.4545 50.3168 19.3939 50.7599 18.5C51.2031 17.6061 51.8111 16.9167 52.5838 16.4318C53.3565 15.947 54.2391 15.7045 55.2315 15.7045C56.224 15.7045 57.1065 15.947 57.8793 16.4318C58.652 16.9167 59.2599 17.6061 59.7031 18.5C60.1463 19.3939 60.3679 20.4545 60.3679 21.6818ZM59.0043 21.6818C59.0043 20.6742 58.8357 19.8239 58.4986 19.1307C58.1652 18.4375 57.7126 17.9129 57.1406 17.5568C56.5724 17.2008 55.9361 17.0227 55.2315 17.0227C54.527 17.0227 53.8887 17.2008 53.3168 17.5568C52.7486 17.9129 52.2959 18.4375 51.9588 19.1307C51.6255 19.8239 51.4588 20.6742 51.4588 21.6818C51.4588 22.6894 51.6255 23.5398 51.9588 24.233C52.2959 24.9261 52.7486 25.4508 53.3168 25.8068C53.8887 26.1629 54.527 26.3409 55.2315 26.3409C55.9361 26.3409 56.5724 26.1629 57.1406 25.8068C57.7126 25.4508 58.1652 24.9261 58.4986 24.233C58.8357 23.5398 59.0043 22.6894 59.0043 21.6818ZM71.9645 15.8636V27.5H70.6009L64.2599 18.3636H64.1463V27.5H62.7372V15.8636H64.1009L70.4645 25.0227H70.5781V15.8636H71.9645ZM74.1477 17.1136V15.8636H82.875V17.1136H79.2159V27.5H77.8068V17.1136H74.1477ZM84.1676 27.5H82.6903L86.9631 15.8636H88.4176L92.6903 27.5H91.2131L87.7358 17.7045H87.6449L84.1676 27.5ZM84.7131 22.9545H90.6676V24.2045H84.7131V22.9545ZM103.32 19.5H101.911C101.827 19.0947 101.681 18.7386 101.473 18.4318C101.268 18.125 101.018 17.8674 100.723 17.6591C100.431 17.447 100.107 17.2879 99.7514 17.1818C99.3954 17.0758 99.0241 17.0227 98.6378 17.0227C97.9332 17.0227 97.295 17.2008 96.723 17.5568C96.1548 17.9129 95.7022 18.4375 95.3651 19.1307C95.0317 19.8239 94.8651 20.6742 94.8651 21.6818C94.8651 22.6894 95.0317 23.5398 95.3651 24.233C95.7022 24.9261 96.1548 25.4508 96.723 25.8068C97.295 26.1629 97.9332 26.3409 98.6378 26.3409C99.0241 26.3409 99.3954 26.2879 99.7514 26.1818C100.107 26.0758 100.431 25.9186 100.723 25.7102C101.018 25.4981 101.268 25.2386 101.473 24.9318C101.681 24.6212 101.827 24.2652 101.911 23.8636H103.32C103.214 24.4583 103.02 24.9905 102.74 25.4602C102.46 25.9299 102.111 26.3295 101.695 26.6591C101.278 26.9848 100.81 27.233 100.291 27.4034C99.776 27.5739 99.2249 27.6591 98.6378 27.6591C97.6454 27.6591 96.7628 27.4167 95.9901 26.9318C95.2173 26.447 94.6094 25.7576 94.1662 24.8636C93.723 23.9697 93.5014 22.9091 93.5014 21.6818C93.5014 20.4545 93.723 19.3939 94.1662 18.5C94.6094 17.6061 95.2173 16.9167 95.9901 16.4318C96.7628 15.947 97.6454 15.7045 98.6378 15.7045C99.2249 15.7045 99.776 15.7898 100.291 15.9602C100.81 16.1307 101.278 16.3807 101.695 16.7102C102.111 17.036 102.46 17.4337 102.74 17.9034C103.02 18.3693 103.214 18.9015 103.32 19.5ZM104.96 17.1136V15.8636H113.688V17.1136H110.028V27.5H108.619V17.1136H104.96Z" fill="#F5F5F5"/>
</g>
<defs>
<filter id="filter0_ddi_2_284" x="0" y="0" width="128" height="51" filterUnits="userSpaceOnUse" color-interpolation-filters="sRGB">
<feFlood flood-opacity="0" result="BackgroundImageFix"/>
<feColorMatrix in="SourceAlpha" type="matrix" values="0 0 0 0 0 0 0 0 0 0 0 0 0 0 0 0 0 0 127 0" result="hardAlpha"/>
<feOffset dy="4"/>
<feGaussianBlur stdDeviation="2"/>
<feComposite in2="hardAlpha" operator="out"/>
<feColorMatrix type="matrix" values="0 0 0 0 0 0 0 0 0 0 0 0 0 0 0 0 0 0 0.25 0"/>
<feBlend mode="normal" in2="BackgroundImageFix" result="effect1_dropShadow_2_284"/>
<feColorMatrix in="SourceAlpha" type="matrix" values="0 0 0 0 0 0 0 0 0 0 0 0 0 0 0 0 0 0 127 0" result="hardAlpha"/>
<feOffset dy="4"/>
<feGaussianBlur stdDeviation="2"/>
<feComposite in2="hardAlpha" operator="out"/>
<feColorMatrix type="matrix" values="0 0 0 0 0 0 0 0 0 0 0 0 0 0 0 0 0 0 0.25 0"/>
<feBlend mode="normal" in2="effect1_dropShadow_2_284" result="effect2_dropShadow_2_284"/>
<feBlend mode="normal" in="SourceGraphic" in2="effect2_dropShadow_2_284" result="shape"/>
<feColorMatrix in="SourceAlpha" type="matrix" values="0 0 0 0 0 0 0 0 0 0 0 0 0 0 0 0 0 0 127 0" result="hardAlpha"/>
<feMorphology radius="3" operator="dilate" in="SourceAlpha" result="effect3_innerShadow_2_284"/>
<feOffset dx="4" dy="5"/>
<feGaussianBlur stdDeviation="2.5"/>
<feComposite in2="hardAlpha" operator="arithmetic" k2="-1" k3="1"/>
<feColorMatrix type="matrix" values="0 0 0 0 0 0 0 0 0 0 0 0 0 0 0 0 0 0 0.25 0"/>
<feBlend mode="normal" in2="shape" result="effect3_innerShadow_2_284"/>
</filter>
</defs>
</svg>
