<svg width="128" height="51" viewBox="0 0 128 51" fill="none" xmlns="http://www.w3.org/2000/svg">
<g filter="url(#filter0_ddi_2_279)">
<path d="M4 8C4 3.58172 7.58172 0 12 0H116C120.418 0 124 3.58172 124 8V35C124 39.4183 120.418 43 116 43H12C7.58172 43 4 39.4183 4 35V8Z" fill="#593027"/>
<path d="M4.5 8C4.5 3.85787 7.85786 0.5 12 0.5H116C120.142 0.5 123.5 3.85786 123.5 8V35C123.5 39.1421 120.142 42.5 116 42.5H12C7.85786 42.5 4.5 39.1421 4.5 35V8Z" stroke="#273940" stroke-linecap="round"/>
<path d="M30.3333 17.5H39M30.3333 21.5H39M30.3333 25.5H39M27 17.5H27.0067M27 21.5H27.0067M27 25.5H27.0067" stroke="#F5F5F5" stroke-width="1.6" stroke-linecap="round" stroke-linejoin="round"/>
<path d="M56.7727 18.7727C56.7045 18.197 56.428 17.75 55.9432 17.4318C55.4583 17.1136 54.8636 16.9545 54.1591 16.9545C53.6439 16.9545 53.1932 17.0379 52.8068 17.2045C52.4242 17.3712 52.125 17.6004 51.9091 17.892C51.697 18.1837 51.5909 18.5152 51.5909 18.8864C51.5909 19.197 51.6648 19.464 51.8125 19.6875C51.964 19.9072 52.1572 20.0909 52.392 20.2386C52.6269 20.3826 52.8731 20.5019 53.1307 20.5966C53.3883 20.6875 53.625 20.7614 53.8409 20.8182L55.0227 21.1364C55.3258 21.2159 55.6629 21.3258 56.0341 21.4659C56.4091 21.6061 56.767 21.7973 57.108 22.0398C57.4527 22.2784 57.7367 22.5852 57.9602 22.9602C58.1837 23.3352 58.2955 23.7955 58.2955 24.3409C58.2955 24.9697 58.1307 25.5379 57.8011 26.0455C57.4754 26.553 56.9981 26.9564 56.3693 27.2557C55.7443 27.5549 54.9848 27.7045 54.0909 27.7045C53.2576 27.7045 52.536 27.5701 51.9261 27.3011C51.3201 27.0322 50.8428 26.6572 50.4943 26.1761C50.1496 25.6951 49.9545 25.1364 49.9091 24.5H51.3636C51.4015 24.9394 51.5492 25.303 51.8068 25.5909C52.0682 25.875 52.3977 26.0871 52.7955 26.2273C53.197 26.3636 53.6288 26.4318 54.0909 26.4318C54.6288 26.4318 55.1117 26.3447 55.5398 26.1705C55.9678 25.9924 56.3068 25.7462 56.5568 25.4318C56.8068 25.1136 56.9318 24.7424 56.9318 24.3182C56.9318 23.9318 56.8239 23.6174 56.608 23.375C56.392 23.1326 56.108 22.9356 55.7557 22.7841C55.4034 22.6326 55.0227 22.5 54.6136 22.3864L53.1818 21.9773C52.2727 21.7159 51.553 21.3428 51.0227 20.858C50.4924 20.3731 50.2273 19.7386 50.2273 18.9545C50.2273 18.303 50.4034 17.7348 50.7557 17.25C51.1117 16.7614 51.589 16.3826 52.1875 16.1136C52.7898 15.8409 53.4621 15.7045 54.2045 15.7045C54.9545 15.7045 55.6212 15.839 56.2045 16.108C56.7879 16.3731 57.25 16.7367 57.5909 17.1989C57.9356 17.661 58.1174 18.1856 58.1364 18.7727H56.7727ZM60.6122 27.5V15.8636H62.0213V21.6364H62.1577L67.3849 15.8636H69.2259L64.3395 21.1136L69.2259 27.5H67.5213L63.4759 22.0909L62.0213 23.7273V27.5H60.6122ZM72.4588 15.8636V27.5H71.0497V15.8636H72.4588ZM75.2841 27.5V15.8636H76.6932V26.25H82.1023V27.5H75.2841ZM84.2841 27.5V15.8636H85.6932V26.25H91.1023V27.5H84.2841ZM99.6477 18.7727C99.5795 18.197 99.303 17.75 98.8182 17.4318C98.3333 17.1136 97.7386 16.9545 97.0341 16.9545C96.5189 16.9545 96.0682 17.0379 95.6818 17.2045C95.2992 17.3712 95 17.6004 94.7841 17.892C94.572 18.1837 94.4659 18.5152 94.4659 18.8864C94.4659 19.197 94.5398 19.464 94.6875 19.6875C94.839 19.9072 95.0322 20.0909 95.267 20.2386C95.5019 20.3826 95.7481 20.5019 96.0057 20.5966C96.2633 20.6875 96.5 20.7614 96.7159 20.8182L97.8977 21.1364C98.2008 21.2159 98.5379 21.3258 98.9091 21.4659C99.2841 21.6061 99.642 21.7973 99.983 22.0398C100.328 22.2784 100.612 22.5852 100.835 22.9602C101.059 23.3352 101.17 23.7955 101.17 24.3409C101.17 24.9697 101.006 25.5379 100.676 26.0455C100.35 26.553 99.8731 26.9564 99.2443 27.2557C98.6193 27.5549 97.8598 27.7045 96.9659 27.7045C96.1326 27.7045 95.411 27.5701 94.8011 27.3011C94.1951 27.0322 93.7178 26.6572 93.3693 26.1761C93.0246 25.6951 92.8295 25.1364 92.7841 24.5H94.2386C94.2765 24.9394 94.4242 25.303 94.6818 25.5909C94.9432 25.875 95.2727 26.0871 95.6705 26.2273C96.072 26.3636 96.5038 26.4318 96.9659 26.4318C97.5038 26.4318 97.9867 26.3447 98.4148 26.1705C98.8428 25.9924 99.1818 25.7462 99.4318 25.4318C99.6818 25.1136 99.8068 24.7424 99.8068 24.3182C99.8068 23.9318 99.6989 23.6174 99.483 23.375C99.267 23.1326 98.983 22.9356 98.6307 22.7841C98.2784 22.6326 97.8977 22.5 97.4886 22.3864L96.0568 21.9773C95.1477 21.7159 94.428 21.3428 93.8977 20.858C93.3674 20.3731 93.1023 19.7386 93.1023 18.9545C93.1023 18.303 93.2784 17.7348 93.6307 17.25C93.9867 16.7614 94.464 16.3826 95.0625 16.1136C95.6648 15.8409 96.3371 15.7045 97.0795 15.7045C97.8295 15.7045 98.4962 15.839 99.0795 16.108C99.6629 16.3731 100.125 16.7367 100.466 17.1989C100.811 17.661 100.992 18.1856 101.011 18.7727H99.6477Z" fill="#F5F5F5"/>
</g>
<defs>
<filter id="filter0_ddi_2_279" x="0" y="0" width="128" height="51" filterUnits="userSpaceOnUse" color-interpolation-filters="sRGB">
<feFlood flood-opacity="0" result="BackgroundImageFix"/>
<feColorMatrix in="SourceAlpha" type="matrix" values="0 0 0 0 0 0 0 0 0 0 0 0 0 0 0 0 0 0 127 0" result="hardAlpha"/>
<feOffset dy="4"/>
<feGaussianBlur stdDeviation="2"/>
<feComposite in2="hardAlpha" operator="out"/>
<feColorMatrix type="matrix" values="0 0 0 0 0 0 0 0 0 0 0 0 0 0 0 0 0 0 0.25 0"/>
<feBlend mode="normal" in2="BackgroundImageFix" result="effect1_dropShadow_2_279"/>
<feColorMatrix in="SourceAlpha" type="matrix" values="0 0 0 0 0 0 0 0 0 0 0 0 0 0 0 0 0 0 127 0" result="hardAlpha"/>
<feOffset dy="4"/>
<feGaussianBlur stdDeviation="2"/>
<feComposite in2="hardAlpha" operator="out"/>
<feColorMatrix type="matrix" values="0 0 0 0 0 0 0 0 0 0 0 0 0 0 0 0 0 0 0.25 0"/>
<feBlend mode="normal" in2="effect1_dropShadow_2_279" result="effect2_dropShadow_2_279"/>
<feBlend mode="normal" in="SourceGraphic" in2="effect2_dropShadow_2_279" result="shape"/>
<feColorMatrix in="SourceAlpha" type="matrix" values="0 0 0 0 0 0 0 0 0 0 0 0 0 0 0 0 0 0 127 0" result="hardAlpha"/>
<feMorphology radius="3" operator="dilate" in="SourceAlpha" result="effect3_innerShadow_2_279"/>
<feOffset dx="4" dy="5"/>
<feGaussianBlur stdDeviation="2.5"/>
<feComposite in2="hardAlpha" operator="arithmetic" k2="-1" k3="1"/>
<feColorMatrix type="matrix" values="0 0 0 0 0 0 0 0 0 0 0 0 0 0 0 0 0 0 0.25 0"/>
<feBlend mode="normal" in2="shape" result="effect3_innerShadow_2_279"/>
</filter>
</defs>
</svg>
